<?xml version="1.0" encoding="UTF-8"?>
<svg id="Main_layer" data-name="Main layer" xmlns="http://www.w3.org/2000/svg" viewBox="0 0 700 700">
  <defs>
    <style>
      .cls-1 {
        fill: #237a05;
      }
    </style>
  </defs>
  <path class="cls-1" d="m546.1,173.3c-1.89-55.55-47.67-100.16-103.68-100.16-.89,0-1.78.01-2.67.03-14.67-37.42-49.3-63.77-89.58-63.77s-74.9,26.36-89.57,63.78c-1-.03-2.01-.04-3.02-.04-56.01,0-101.79,44.61-103.68,100.16-61.16,54.2-99.71,133.34-99.71,221.48,0,163.37,132.44,295.81,295.81,295.81s295.81-132.44,295.81-295.81c0-88.14-38.55-167.28-99.71-221.48Zm-288.53-60.16c13.56,0,26.13,4.24,36.46,11.46-.6-3.72-.92-7.55-.92-11.46,0-35.2,25.55-63.74,57.06-63.74s57.07,28.54,57.07,63.74c0,3.81-.3,7.55-.88,11.18,10.25-7.05,22.67-11.18,36.06-11.18,35.2,0,63.74,28.54,63.74,63.75,0,32.65-24.56,59.57-56.21,63.3v67.42h-199.91v-67.42c-31.65-3.73-56.21-30.65-56.21-63.3,0-35.21,28.54-63.75,63.74-63.75Zm252.19,270.73c-.29,5.39-1.32,10.92-3.03,16.51-4.15,13.72-12.44,27.64-24.46,39.66-16.1,16.1-38.22,28.34-61.52,27.61-5.81-.18-11.67-1.3-17.06-3.5l-28.88,30.82,105.33,98.71c5.83,5.45,5.97,14.66.34,20.29l-12.17,12.17c-5.64,5.64-14.8,5.49-20.27-.27l-98.31-104.15-94.42,100.74c-5.45,5.82-14.65,5.97-20.29.33l-12.16-12.17c-5.64-5.63-5.49-14.79.27-20.26l101.2-95.54-27.67-29.31c-.33-.33-.63-.71-.9-1.06-12.1,9.56-29.7,8.74-40.87-2.42l-62.42-62.43c-3.11-3.11-3.13-8.18,0-11.31l1.23-1.24c3.13-3.13,8.22-3.13,11.33-.02l55.35,55.36c3.11,3.11,8.04,3.86,11.67,1.39,4.86-3.27,5.34-9.97,1.4-13.92l-55.62-55.62c-3.11-3.11-3.13-8.18,0-11.31,1.56-1.57,3.61-2.36,5.67-2.34,2.05,0,4.09.75,5.66,2.32l55.37,55.37c3.09,3.09,8,3.86,11.61,1.42,4.88-3.3,5.38-10.02,1.44-13.97l-55.63-55.62c-3.11-3.11-3.13-8.18,0-11.31l.65-.65c3.13-3.13,8.22-3.13,11.33-.02l62.45,62.45c11.36,11.35,11.98,29.39,1.88,41.49.36.23.67.5.96.8l30.18,28.29s31.79-30.01,31.79-30.01c.2-.19-2.29-8.09-2.44-9.02-.47-2.96-.77-5.98-.82-8.98-.42-22.32,12.34-44.38,27.7-59.75,12-12,25.9-20.27,39.59-24.44,5.62-1.73,11.21-2.74,16.62-3.05,13.94-.83,26.67,3.09,35.75,12.17,9.08,9.08,13.02,21.83,12.17,35.79Z"/>
</svg>