<svg width="50" height="50" viewBox="0 0 50 50" fill="none" xmlns="http://www.w3.org/2000/svg">
<path fill-rule="evenodd" clip-rule="evenodd" d="M15.625 35.9375C15.625 35.5231 15.7896 35.1257 16.0826 34.8326C16.3757 34.5396 16.7731 34.375 17.1875 34.375H45.3125C45.7269 34.375 46.1243 34.5396 46.4174 34.8326C46.7104 35.1257 46.875 35.5231 46.875 35.9375C46.875 36.3519 46.7104 36.7493 46.4174 37.0423C46.1243 37.3354 45.7269 37.5 45.3125 37.5H17.1875C16.7731 37.5 16.3757 37.3354 16.0826 37.0423C15.7896 36.7493 15.625 36.3519 15.625 35.9375ZM15.625 23.4375C15.625 23.0231 15.7896 22.6257 16.0826 22.3326C16.3757 22.0396 16.7731 21.875 17.1875 21.875H45.3125C45.7269 21.875 46.1243 22.0396 46.4174 22.3326C46.7104 22.6257 46.875 23.0231 46.875 23.4375C46.875 23.8519 46.7104 24.2493 46.4174 24.5423C46.1243 24.8354 45.7269 25 45.3125 25H17.1875C16.7731 25 16.3757 24.8354 16.0826 24.5423C15.7896 24.2493 15.625 23.8519 15.625 23.4375ZM15.625 10.9375C15.625 10.5231 15.7896 10.1257 16.0826 9.83263C16.3757 9.53961 16.7731 9.37499 17.1875 9.37499H45.3125C45.7269 9.37499 46.1243 9.53961 46.4174 9.83263C46.7104 10.1257 46.875 10.5231 46.875 10.9375C46.875 11.3519 46.7104 11.7493 46.4174 12.0423C46.1243 12.3354 45.7269 12.5 45.3125 12.5H17.1875C16.7731 12.5 16.3757 12.3354 16.0826 12.0423C15.7896 11.7493 15.625 11.3519 15.625 10.9375ZM12.0437 6.70624C12.1893 6.85138 12.3047 7.0238 12.3835 7.21363C12.4622 7.40346 12.5028 7.60696 12.5028 7.81249C12.5028 8.01801 12.4622 8.22151 12.3835 8.41134C12.3047 8.60117 12.1893 8.77359 12.0437 8.91874L7.35625 13.6062C7.21111 13.7517 7.03868 13.8672 6.84885 13.946C6.65903 14.0247 6.45552 14.0653 6.25 14.0653C6.04448 14.0653 5.84097 14.0247 5.65114 13.946C5.46132 13.8672 5.28889 13.7517 5.14375 13.6062L3.58125 12.0437C3.43598 11.8985 3.32074 11.726 3.24211 11.5362C3.16349 11.3464 3.12303 11.1429 3.12303 10.9375C3.12303 10.732 3.16349 10.5286 3.24211 10.3388C3.32074 10.149 3.43598 9.97651 3.58125 9.83124C3.72652 9.68596 3.89899 9.57072 4.0888 9.4921C4.27861 9.41348 4.48205 9.37301 4.6875 9.37301C4.89295 9.37301 5.09639 9.41348 5.2862 9.4921C5.47601 9.57072 5.64847 9.68596 5.79375 9.83124L6.25 10.2906L9.83125 6.70624C9.97639 6.56073 10.1488 6.44528 10.3386 6.36651C10.5285 6.28774 10.732 6.24719 10.9375 6.24719C11.143 6.24719 11.3465 6.28774 11.5364 6.36651C11.7262 6.44528 11.8986 6.56073 12.0437 6.70624ZM12.0437 19.2062C12.1893 19.3514 12.3047 19.5238 12.3835 19.7136C12.4622 19.9035 12.5028 20.107 12.5028 20.3125C12.5028 20.518 12.4622 20.7215 12.3835 20.9113C12.3047 21.1012 12.1893 21.2736 12.0437 21.4187L7.35625 26.1062C7.21111 26.2517 7.03868 26.3672 6.84885 26.446C6.65903 26.5247 6.45552 26.5653 6.25 26.5653C6.04448 26.5653 5.84097 26.5247 5.65114 26.446C5.46132 26.3672 5.28889 26.2517 5.14375 26.1062L3.58125 24.5437C3.28785 24.2503 3.12303 23.8524 3.12303 23.4375C3.12303 23.0226 3.28785 22.6246 3.58125 22.3312C3.87465 22.0378 4.27258 21.873 4.6875 21.873C5.10242 21.873 5.50035 22.0378 5.79375 22.3312L6.25 22.7906L9.83125 19.2062C9.97639 19.0607 10.1488 18.9453 10.3386 18.8665C10.5285 18.7877 10.732 18.7472 10.9375 18.7472C11.143 18.7472 11.3465 18.7877 11.5364 18.8665C11.7262 18.9453 11.8986 19.0607 12.0437 19.2062ZM12.0437 31.7062C12.1893 31.8514 12.3047 32.0238 12.3835 32.2136C12.4622 32.4035 12.5028 32.607 12.5028 32.8125C12.5028 33.018 12.4622 33.2215 12.3835 33.4113C12.3047 33.6012 12.1893 33.7736 12.0437 33.9187L7.35625 38.6062C7.21111 38.7517 7.03868 38.8672 6.84885 38.946C6.65903 39.0247 6.45552 39.0653 6.25 39.0653C6.04448 39.0653 5.84097 39.0247 5.65114 38.946C5.46132 38.8672 5.28889 38.7517 5.14375 38.6062L3.58125 37.0437C3.28785 36.7503 3.12303 36.3524 3.12303 35.9375C3.12303 35.5226 3.28785 35.1246 3.58125 34.8312C3.87465 34.5378 4.27258 34.373 4.6875 34.373C5.10242 34.373 5.50035 34.5378 5.79375 34.8312L6.25 35.2906L9.83125 31.7062C9.97639 31.5607 10.1488 31.4453 10.3386 31.3665C10.5285 31.2877 10.732 31.2472 10.9375 31.2472C11.143 31.2472 11.3465 31.2877 11.5364 31.3665C11.7262 31.4453 11.8986 31.5607 12.0437 31.7062Z" fill="#9BE17D"/>
</svg>
