<svg width="50" height="50" viewBox="0 0 50 50" fill="none" xmlns="http://www.w3.org/2000/svg">
<g clip-path="url(#clip0_15_32)">
<path d="M20.3125 40.625C24.6348 40.6318 28.8457 39.2541 32.3281 36.6937H32.325C32.4187 36.8187 32.5188 36.9375 32.6313 37.0531L44.6625 49.0844C45.2485 49.6708 46.0434 50.0003 46.8723 50.0006C47.7013 50.0009 48.4964 49.6719 49.0828 49.0859C49.6692 48.5 49.9988 47.7051 49.9991 46.8761C49.9994 46.0471 49.6703 45.252 49.0844 44.6656L37.0531 32.6344C36.9414 32.5213 36.8213 32.4168 36.6937 32.3219C39.2534 28.8415 40.6311 24.6328 40.625 20.3125C40.6233 14.9258 38.4828 9.7602 34.6738 5.95122C30.8648 2.14225 25.6992 0.00165668 20.3125 0C14.9253 0 9.75873 2.14006 5.94939 5.94939C2.14006 9.75873 0 14.9253 0 20.3125C0 25.6997 2.14006 30.8663 5.94939 34.6756C9.75873 38.4849 14.9253 40.625 20.3125 40.625ZM20.3125 14.0062C25.5125 8.77812 38.5156 17.925 20.3125 29.6875C2.10938 17.925 15.1125 8.78125 20.3125 14.0062Z" fill="#9BE17D"/>
</g>
<defs>
<clipPath id="clip0_15_32">
<rect width="50" height="50" fill="white"/>
</clipPath>
</defs>
</svg>
